<?xml version="1.0" encoding="UTF-8" standalone="no"?>
<!-- Created with Inkscape (http://www.inkscape.org/) -->

<svg
  width="576"
  height="144"
  viewBox="0 0 152.4 38.1"
  version="1.1"
  id="svg5"
  xml:space="preserve"
  inkscape:version="1.2.2 (b0a8486541, 2022-12-01)"
  sodipodi:docname="Logo.svg"
  inkscape:export-filename="tmp/osd_convert/osd.png"
  inkscape:export-xdpi="96"
  inkscape:export-ydpi="96"
  xmlns:inkscape="http://www.inkscape.org/namespaces/inkscape"
  xmlns:sodipodi="http://sodipodi.sourceforge.net/DTD/sodipodi-0.dtd"
  xmlns="http://www.w3.org/2000/svg"
  xmlns:svg="http://www.w3.org/2000/svg"><sodipodi:namedview
     id="namedview7"
     pagecolor="#505050"
     bordercolor="#eeeeee"
     borderopacity="1"
     inkscape:showpageshadow="0"
     inkscape:pageopacity="0"
     inkscape:pagecheckerboard="0"
     inkscape:deskcolor="#505050"
     inkscape:document-units="mm"
     showgrid="false"
     inkscape:zoom="2.0264685"
     inkscape:cx="336.0526"
     inkscape:cy="121.14672"
     inkscape:window-width="2536"
     inkscape:window-height="1386"
     inkscape:window-x="0"
     inkscape:window-y="0"
     inkscape:window-maximized="1"
     inkscape:current-layer="layer1" /><defs
     id="defs2" /><g
     inkscape:groupmode="layer"
     id="layer4"
     inkscape:label="Background"
     style="fill:#7f7f7f;fill-opacity:1" /><g
     inkscape:label="Logo"
     inkscape:groupmode="layer"
     id="layer1"
     style="display:inline"
     transform="matrix(0.98616102,0,0,0.98616354,0.9598257,0.27069553)"><path
       style="display:inline;fill:#c4e3b1;stroke:#000000;stroke-width:7.16066;stroke-linejoin:round;stroke-dasharray:none;stroke-opacity:1;paint-order:fill markers stroke"
       d="M 167.63695,510.58298 C 104.46182,502.00327 50.95447,464.09726 23.340261,408.35943 2.2503166,365.79049 -5.1954413,315.45456 3.668126,275.36888 17.428922,213.13538 61.971991,149.54714 122.59165,105.59753 176.59031,66.44819 269.03433,26.284189 344.59121,9.145766 398.83605,-3.1584898 445.07069,-3.0418111 469.41524,9.4607725 c 12.5895,6.4655645 19.55506,14.1674835 26.36893,29.1564835 7.34152,16.149693 10.62056,26.708273 13.20256,42.512475 6.19803,37.937509 2.80473,84.783939 -9.90467,136.739939 -26.99498,110.35534 -87.21748,203.43563 -162.46533,251.10749 -24.21076,15.33826 -59.00918,30.22446 -85.86598,36.73208 -23.58168,5.71401 -60.83949,7.89879 -83.1138,4.87374 z"
       id="path369"
       transform="matrix(0.07441406,0,0,0.07441406,57.15,-1.6076342e-8)"
       inkscape:label="inner" /><path
       id="path367"
       style="display:inline;fill:#a5d287;stroke-width:1.35834"
       transform="matrix(0.07441406,0,0,0.07441406,57.15,-1.6076342e-8)"
       d="M 166.19884,509.95691 C 83.18157,497.78226 21.460714,437.6903 4.3603508,352.38953 0.30390066,332.15496 -0.58579181,301.8409 2.3681577,284.51043 12.593754,224.51809 54.116632,159.83168 111.33559,114.75551 162.39374,74.532737 256.47681,31.080023 333.98051,11.925895 379.29601,0.72669686 422.68087,-2.7635997 448.01916,2.75152 c 16.05403,3.4943099 28.38589,9.712401 36.59727,18.453432 6.83285,7.273587 17.87274,31.375888 21.5827,47.119371 11.41779,48.452277 5.02747,115.651487 -17.62523,185.343217 -28.04329,86.27607 -75.87062,158.88662 -132.82486,201.65223 -57.15318,42.91501 -128.75252,63.55324 -189.5502,54.63714 z m 15.0672,-145.99141 c 31.60165,-6.94401 64.12941,-24.23739 92.15206,-48.99264 13.75944,-12.1551 45.70373,-45.43693 59.15286,-61.62964 34.08666,-41.04027 60.65811,-84.26287 70.27693,-114.31642 4.2553,-13.29544 5.61416,-27.71381 3.48799,-37.0096 C 398.49166,67.721718 343.42053,64.956952 257.05294,94.522679 219.1907,107.48385 168.91397,131.79838 143.4128,149.48064 c -39.57276,27.43937 -68.163417,65.24694 -78.073279,103.24215 -3.99144,15.3035 -4.945443,38.74168 -2.064749,50.72719 7.83372,32.5932 31.967448,54.92855 66.856728,61.87473 12.5793,2.50444 36.43747,1.87026 51.13454,-1.35921 z"
       inkscape:label="inner_highligth" /><path
       style="display:inline;fill:#7a3123;stroke-width:1.35834;stroke:#000000;stroke-opacity:1"
       d="m 128.06753,311.01188 c -12.55154,-3.54492 -16.87443,-6.67707 -20.1129,-14.5728 -8.472839,-20.65762 -10.750001,-51.1469 -5.4449,-72.90274 3.34379,-13.7127 11.38363,-30.58404 19.96403,-41.89384 40.26489,-53.0731 110.07104,-63.44092 159.02334,-23.61862 15.25958,12.41355 18.66181,17.9686 18.66181,30.47035 0,19.6329 -13.12081,44.96168 -36.37588,70.22103 -27.18391,29.52679 -55.62686,46.3612 -88.20197,52.20374 -15.17866,2.72236 -38.04497,2.76707 -47.51353,0.0929 z"
       transform="matrix(0.07441406,0,0,0.07441406,57.15,-1.6076342e-8)"
       id="path53716"
       inkscape:label="stone" /><path
       id="path54776"
       style="display:inline;fill:#3c701b;fill-opacity:1;stroke:none;stroke-width:1.80272342;stroke-linejoin:round;stroke-dasharray:none;stroke-opacity:1;paint-order:fill markers stroke"
       d="M 418.21901,0.00121245 C 396.83669,-0.05274814 371.71132,2.996492 344.58893,9.1486137 269.03212,26.28702 176.59172,66.444893 122.59311,105.59419 61.973514,149.54376 17.430332,213.13343 3.6695501,275.36686 -5.1940083,315.4525 2.2476461,365.7909 23.337569,408.3598 c 27.614182,55.73777 81.127491,93.64022 144.302561,102.21992 22.27429,3.02504 59.52682,0.84102 83.10847,-4.87298 26.85678,-6.50762 61.65816,-21.3922 85.8689,-36.73045 C 411.86527,421.30448 472.08616,328.22515 499.08111,217.86992 511.7905,165.91397 515.18709,119.06818 508.98906,81.130705 506.40706,65.326518 503.12702,54.768556 495.7855,38.618879 488.97164,23.629894 482.00309,15.924014 469.4136,9.4584564 457.24134,3.2071709 439.60132,0.05517305 418.21901,0.00121245 Z M 454.01297,28.084227 c 20.24817,10.630723 28.24844,32.903496 23.33685,64.968379 -6.07038,39.629944 -27.91599,87.713574 -63.97564,140.816464 -19.70755,29.02213 -33.64086,46.1382 -60.06034,73.77073 -26.00687,27.20098 -43.97438,42.90256 -70.20068,61.34885 -29.1632,20.51197 -53.61258,31.84 -83.98871,38.91342 -15.99601,3.72486 -60.37881,4.96295 -74.70749,2.0844 C 86.645878,402.40055 47.926541,379.08961 32.569497,349.97557 16.361486,317.2919 19.713042,272.12421 41.70988,226.78494 64.004204,180.83248 99.208024,141.61506 145.03564,111.67134 193.42553,80.053443 270.36922,46.781342 332.05435,30.802393 373.82728,22.96892 419.45764,10.179527 454.01297,28.084227 Z"
       transform="matrix(0.07441406,0,0,0.07441406,57.150001,0)"
       inkscape:label="dark_green"
       sodipodi:nodetypes="ssssssssssssscsssssccsscc" /><path
       style="display:inline;fill:#652012;stroke-width:1.35834"
       d="m 127.36762,310.54248 c -4.94374,-1.35219 -10.61383,-3.704 -12.6002,-5.22629 -8.16024,-6.25369 -13.54558,-24.78571 -14.5143,-49.94656 -0.597605,-15.52166 -0.290306,-19.84555 2.12562,-29.90907 15.10571,-62.92253 80.62717,-104.56935 138.75816,-88.19761 22.70344,6.39407 49.86775,24.99868 56.6435,38.79466 2.20099,4.48138 2.57901,7.28358 2.06426,15.30232 -2.51593,39.19301 -54.8879,97.02161 -103.25084,114.00854 -21.80062,7.65721 -51.91743,9.90817 -69.2262,5.17401 z m 88.38712,-72.51152 c 29.98444,-15.48229 40.48144,-51.75506 20.91603,-72.2761 -22.18461,-23.26816 -67.12419,-8.93846 -79.10275,25.22316 -6.18046,17.62601 -0.83821,37.38435 12.43414,45.98776 8.49003,5.5034 13.55298,6.72574 25.51607,6.16025 9.59493,-0.45356 12.81979,-1.2655 20.23651,-5.09507 z"
       id="path347"
       sodipodi:nodetypes="sssssssssssssss"
       transform="matrix(0.07441406,0,0,0.07441406,57.15,-1.6076342e-8)"
       inkscape:label="stone_highligth" /></g><g
     inkscape:groupmode="layer"
     id="layer3"
     inkscape:label="Text"
     style="display:inline"><g
       id="g784"
       transform="matrix(0.93837412,0.10201401,-0.11778987,0.81269556,11.526542,-7.0390086)"
       style="display:inline"><path
         style="display:inline;fill:#000000;fill-opacity:0.29819;stroke-width:0.558075"
         d="m 126.30603,32.315462 c -0.65839,-4.104322 -0.16013,-12.001862 0.86083,-13.644517 0.50731,-0.816218 1.8812,-1.229284 5.09054,-1.530495 4.4468,-0.417349 7.68118,0.168728 5.92481,1.073584 -0.47834,0.246433 -1.96368,0.468146 -3.30077,0.492692 -2.66985,0.04902 -2.85066,0.257212 -3.4513,3.974137 l -0.41197,2.549382 3.02328,-0.276029 c 4.41839,-0.403393 4.56428,0.952226 0.23434,2.177686 l -3.35084,0.948362 0.39632,2.494697 c 0.21798,1.372086 0.49704,2.539088 0.62012,2.593336 0.12309,0.05425 1.81979,-0.256088 3.77046,-0.689632 l 3.54667,-0.788262 0.0538,-2.043876 c 0.0296,-1.124134 0.48982,-3.71245 1.02273,-5.751819 0.84095,-3.21824 1.19662,-3.908713 2.69311,-5.228178 2.22477,-1.961595 3.69836,-2.050758 6.62445,-0.400825 3.36742,1.898796 3.66828,3.051147 1.58309,6.063804 l -1.66089,2.399646 1.82058,1.477635 c 2.06104,1.672795 2.98132,3.397443 2.86584,5.370764 -0.17215,2.941952 -2.53769,3.303535 -2.97704,0.455053 -0.1349,-0.874583 -0.8036,-2.260681 -1.48601,-3.080226 -1.15139,-1.382764 -1.37506,-1.460608 -3.10573,-1.08083 -1.51148,0.331681 -1.85021,0.634383 -1.78705,1.597041 0.0429,0.653295 -0.34147,2.139371 -0.85406,3.302402 -0.77242,1.752582 -1.19176,2.120397 -2.44941,2.148471 -1.22424,0.02732 -1.61855,-0.199632 -2.04074,-1.174595 -0.48428,-1.118364 -0.8778,-1.116918 -5.27832,0.0194 -6.26321,1.6173 -7.23132,1.198738 -7.97685,-3.448809 z m 22.32955,-11.561355 c 0.007,-1.101202 -1.70315,0.988792 -2.78672,3.405842 -0.60251,1.344004 -0.46512,1.282538 1.04352,-0.466895 0.95557,-1.108081 1.74,-2.430611 1.7432,-2.938947 z"
         id="path768" /><path
         style="display:inline;fill:#000000;fill-opacity:0.29819;stroke-width:0.558075"
         d="m 113.48754,31.165507 c -2.48773,-7.537235 -1.98737,-11.111433 1.50637,-10.760189 1.02073,0.102622 1.44388,0.683208 2.11108,2.896676 l 0.83446,2.768326 0.86652,-2.687725 c 1.07942,-3.348118 2.62335,-5.798331 3.62835,-5.758196 0.42114,0.01682 1.32032,0.481858 1.99817,1.033414 l 1.23247,1.002832 -3.49252,8.387563 c -3.48263,8.363803 -3.49618,8.387018 -4.78454,8.196521 -2.22391,-0.328826 -2.41425,-0.576693 -3.90036,-5.079222 z"
         id="path766" /><path
         style="display:inline;fill:#000000;fill-opacity:0.29819;stroke-width:0.558075"
         d="m 104.02495,34.235977 c -0.24473,-0.902398 0.12108,-6.906433 0.54135,-8.885217 0.10728,-0.505064 0.21991,-2.281472 0.2503,-3.947566 0.0438,-2.397856 0.28991,-3.271321 1.18103,-4.190547 1.46337,-1.509521 3.67916,-0.704815 3.4451,1.251152 -0.0869,0.726312 -0.12808,3.697129 -0.0915,6.601817 0.0366,2.90469 0.0299,5.90936 -0.0149,6.677056 -0.0628,1.076502 0.19864,1.42396 1.14294,1.518896 1.14466,0.115082 1.76104,1.219727 1.29792,2.326035 -0.24202,0.578061 -5.10189,0.625977 -6.41624,0.06324 -0.59259,-0.253715 -1.19381,-0.890402 -1.33604,-1.414869 z"
         id="path764" /><path
         style="display:inline;fill:#000000;fill-opacity:0.29819;stroke-width:0.558075"
         d="m 86.943836,34.105614 c 1.140767,-1.002028 1.77952,-2.092657 2.275936,-3.886016 l 0.690096,-2.493036 -2.392175,-1.484363 c -2.469188,-1.532155 -3.723351,-3.630211 -3.064138,-5.125917 0.86018,-1.951689 5.587974,-4.197881 8.522327,-4.048987 0.548178,0.02782 1.610022,0.568661 2.359655,1.201872 1.210022,1.022094 1.377022,1.029962 1.488111,0.07012 0.147258,-1.272321 2.076653,-2.204902 3.376462,-1.632031 1.87433,0.826087 2.67215,13.15481 1.08441,16.757296 -0.82118,1.863181 -2.470145,2.752265 -3.387082,1.826242 -0.301266,-0.304258 -0.630515,-3.685889 -0.731663,-7.514742 -0.128029,-4.846311 -0.431454,-6.971429 -0.998626,-6.99408 -0.448102,-0.0179 -1.131803,-0.172288 -1.519349,-0.343094 -0.840129,-0.370276 -4.661335,2.672158 -4.723851,3.761122 -0.02403,0.418572 0.855313,1.47042 1.954098,2.337445 2.24327,1.77009 2.388298,2.783057 0.758965,5.301136 -2.396216,3.703279 -4.391301,4.932723 -6.497935,4.004252 -0.69895,-0.308053 -0.614333,-0.490723 0.804778,-1.737214 z"
         id="path762" /><path
         style="display:inline;fill:#000000;fill-opacity:0.600917;stroke-width:0.558075"
         d="m 126.69341,33.48128 c -0.85281,-3.51039 -0.90489,-5.62045 -0.26243,-10.633152 0.45177,-3.524967 0.71793,-4.342041 1.55486,-4.773212 1.06507,-0.548705 9.03916,-1.20227 9.92191,-0.813209 1.2696,0.559558 -0.18906,1.261642 -2.99808,1.443036 l -3.06635,0.198012 -0.41724,3.065561 c -0.22947,1.686067 -0.38976,3.148893 -0.3562,3.250737 0.0336,0.101845 1.347,0.07632 2.91874,-0.05672 2.60149,-0.220204 3.44121,0.04709 3.03604,0.966402 -0.0812,0.184245 -1.50314,0.667356 -3.15987,1.073588 l -3.01222,0.738601 0.19797,1.890634 c 0.35915,3.429757 0.68462,3.629383 4.61654,2.831427 1.98939,-0.403729 3.6538,-0.817403 3.6987,-0.91927 0.0449,-0.101863 0.13374,-1.210533 0.19742,-2.463701 0.16741,-3.293935 1.60675,-8.120314 2.92614,-9.811873 2.31588,-2.969126 6.10989,-2.78885 9.11469,0.433097 1.40108,1.502326 1.41506,1.660041 0.29915,3.37568 -0.64383,0.989841 -1.5187,2.232807 -1.94416,2.762137 -0.67348,0.837891 -0.52261,1.126043 1.16607,2.227121 2.28077,1.487126 3.52639,4.307522 2.71524,6.14796 -0.84704,1.921869 -1.99795,1.774995 -2.42504,-0.30947 -0.20516,-1.001329 -0.8996,-2.488393 -1.5432,-3.304589 -1.09383,-1.387159 -1.28607,-1.454195 -2.94611,-1.027363 -0.97675,0.251147 -1.82734,0.806334 -1.89017,1.233761 -0.0628,0.427415 -0.48753,1.929325 -0.94375,3.337575 -0.75053,2.31669 -0.9632,2.554879 -2.23393,2.50193 -1.08307,-0.04512 -1.54894,-0.400139 -2.03601,-1.551541 -0.34737,-0.82117 -0.80308,-1.323763 -1.0127,-1.116882 -0.74596,0.73624 -9.7199,2.676803 -10.59501,2.291113 -0.48983,-0.215889 -1.17428,-1.56021 -1.521,-2.987387 z m 21.16315,-10.715259 c 0.74008,-1.133879 1.1369,-2.234581 0.96838,-2.686057 -0.28433,-0.761745 -0.93065,0.04774 -3.33192,4.172997 -0.84825,1.457238 -0.83949,1.593732 0.0676,1.054092 0.57312,-0.340951 1.6063,-1.484418 2.29593,-2.541032 z"
         id="path750" /><path
         style="display:inline;fill:#000000;fill-opacity:0.600917;stroke-width:0.558075"
         d="m 113.92641,32.48844 c -1.61416,-4.519821 -2.33292,-9.966923 -1.46186,-11.078678 0.39896,-0.50921 1.3958,-0.896948 2.21519,-0.861638 1.31494,0.05666 1.57208,0.373145 2.1907,2.696408 l 0.70089,2.632213 2.06826,-4.009794 c 2.20855,-4.28178 2.76482,-4.589854 5.04023,-2.791321 0.94304,0.745396 0.87264,0.985179 -2.60756,8.881512 -3.36517,7.635314 -3.64699,8.113138 -4.76366,8.076692 -1.98792,-0.06488 -2.22974,-0.318372 -3.38219,-3.545394 z"
         id="path748" /><path
         style="display:inline;fill:#000000;fill-opacity:0.600917;stroke-width:0.558075"
         d="m 104.40757,34.126104 c -0.51892,-1.63403 0.54993,-14.450626 1.3585,-16.289833 0.547,-1.244194 1.65782,-1.652464 2.94844,-1.083641 0.26156,0.115281 0.4822,2.228337 0.49032,4.695685 0.0415,12.625195 -0.002,12.159967 1.13502,12.06056 0.72918,-0.06374 1.15481,0.205021 1.32634,0.837496 0.31734,1.170158 -1.34428,1.789095 -4.17057,1.553493 -2.55245,-0.212782 -2.60124,-0.240804 -3.08805,-1.77376 z"
         id="path746" /><path
         style="display:inline;fill:#000000;fill-opacity:0.600917;stroke-width:0.558075"
         d="m 97.771451,34.327514 c -0.484388,-1.651906 -0.78776,-15.690027 -0.360048,-16.660475 0.314509,-0.713598 2.252372,-1.197519 3.168567,-0.791252 1.03613,0.459769 1.8345,12.332669 1.0316,15.343918 -0.51647,1.936966 -2.223935,3.901399 -3.0678,3.529477 -0.224511,-0.09895 -0.572057,-0.738704 -0.772319,-1.421668 z"
         id="path744" /><path
         style="display:inline;fill:#000000;fill-opacity:0.600917;stroke-width:0.558075"
         d="m 86.63696,34.672057 c 0.499833,-0.544323 1.491653,-2.262023 2.204036,-3.817117 l 1.295273,-2.827428 -1.818744,-1.336807 c -4.648916,-3.417039 -5.075891,-4.946158 -1.988413,-7.121019 3.757886,-2.647115 7.377181,-2.899546 9.586217,-0.668606 0.927211,0.93641 0.221305,2.193985 -0.943405,1.680655 -1.107509,-0.48812 -4.354317,1.573124 -5.083305,3.227146 -0.341061,0.773844 -0.116071,1.360528 0.770247,2.00846 3.263707,2.385889 3.343791,2.691276 1.581673,6.031173 -1.356247,2.570611 -1.927931,3.165835 -3.530581,3.675931 -2.451623,0.780317 -3.265103,0.445829 -2.072988,-0.852411 z"
         id="path742" /><path
         style="display:inline;fill:#000200;stroke-width:0.558075"
         d="m 126.65008,32.84431 c -0.7835,-4.378827 -0.19093,-13.151715 0.97411,-14.421446 0.68744,-0.749218 8.97091,-1.24442 9.90188,-0.591958 0.40506,0.283876 -0.67323,0.556394 -2.43015,0.614164 -1.73706,0.05712 -3.2764,0.371811 -3.42074,0.699313 -0.44214,1.003198 -0.8106,6.136255 -0.45019,6.271798 0.1863,0.07008 1.05246,0.04461 1.92479,-0.05659 0.87232,-0.101197 2.14762,0.05366 2.83399,0.344132 1.08416,0.458821 0.83979,0.61176 -1.86216,1.165467 -1.71056,0.350546 -3.2168,0.87334 -3.3472,1.16177 -0.13031,0.288461 -0.0421,1.662708 0.19626,3.053955 l 0.43335,2.529537 2.0878,-0.396203 c 1.14829,-0.21791 2.89411,-0.505775 3.8796,-0.639704 1.28673,-0.174866 1.84738,-0.567329 1.98899,-1.392334 1.56217,-9.100871 2.31574,-11.180869 4.65549,-12.849838 1.99334,-1.421884 4.01442,-1.20288 6.32707,0.685603 2.39634,1.956819 2.56581,2.992146 0.83967,5.129589 -2.06469,2.556663 -2.06253,2.672752 0.0826,4.418234 2.21887,1.805507 3.27494,4.25652 2.54632,5.909705 -0.81882,1.857836 -1.41145,1.611802 -2.3317,-0.96804 -1.11451,-3.124375 -2.6467,-4.378684 -4.8644,-3.982176 -1.26427,0.22604 -1.71219,0.604124 -1.81305,1.530407 -0.0737,0.676606 -0.35391,2.040724 -0.62274,3.031365 -0.79967,2.946761 -3.36471,3.50994 -4.45635,0.978433 -0.4335,-1.005281 -0.84486,-1.017613 -3.88364,-0.116416 -6.70995,1.98996 -8.53094,1.572084 -9.18956,-2.108775 z m 19.63579,-7.85404 c 1.72279,-1.667461 3.04473,-4.298431 2.53898,-5.053163 -0.50552,-0.754385 -1.02542,-0.201323 -2.97418,3.163837 -1.98468,3.427204 -1.8332,4.084852 0.4352,1.889326 z"
         id="path730" /><path
         style="display:inline;fill:#000200;stroke-width:0.558075"
         d="M 114.13217,32.525719 C 111.9,26.44808 111.70653,22.042165 113.62272,20.923948 c 1.31943,-0.769968 2.51954,0.27224 3.30081,2.866503 l 0.75839,2.518301 1.58547,-3.597305 c 1.91899,-4.354056 2.59359,-5.110518 3.99549,-4.480339 2.15229,0.967513 2.0813,1.480631 -1.30136,9.406163 -1.78319,4.178005 -3.48309,7.766069 -3.77755,7.973482 -0.29445,0.207417 -1.07076,0.294617 -1.72513,0.19378 -0.88158,-0.135848 -1.48427,-0.985186 -2.32667,-3.278814 z"
         id="path728" /><path
         style="display:inline;fill:#000200;stroke-width:0.558075"
         d="m 104.34244,32.89848 c -0.10548,-2.55001 0.89799,-12.695255 1.4307,-14.464629 0.32286,-1.072336 0.81195,-1.558581 1.64056,-1.631015 1.66936,-0.14592 1.6325,-0.220176 1.57076,3.164005 -0.19585,10.735916 0.0348,13.405729 1.19761,13.862036 1.89957,0.745424 1.20386,1.958379 -1.10999,1.935264 -3.2822,-0.0328 -4.64666,-0.859506 -4.72964,-2.865661 z"
         id="path726" /><path
         style="display:inline;fill:#000200;stroke-width:0.558075"
         d="m 97.407984,26.540649 c -0.15747,-4.518944 -0.143925,-8.539299 0.03009,-8.934124 0.174013,-0.394821 0.982662,-0.608293 1.796995,-0.474369 1.835961,0.301931 2.198041,1.566602 2.463231,8.603661 0.23865,6.332421 -1.14474,10.281278 -3.273168,9.343203 -0.434618,-0.191552 -0.846896,-3.652389 -1.017148,-8.538371 z"
         id="path724" /><path
         style="display:inline;fill:#000200;stroke-width:0.558075"
         d="m 85.971089,35.429174 c 0.06893,-0.156407 0.785877,-0.828408 1.593209,-1.49334 1.037777,-0.854718 1.665012,-1.921127 2.140682,-3.639541 0.709223,-2.562125 0.650594,-2.67001 -2.640651,-4.859781 -3.37813,-2.247571 -3.228993,-4.049793 0.530986,-6.416558 2.887413,-1.817514 5.291743,-1.999211 7.375295,-0.557361 1.809616,1.252295 1.643971,2.843121 -0.210917,2.025603 -0.775659,-0.341861 -1.579709,-0.155641 -2.349302,0.544099 -0.643523,0.585112 -1.291906,0.881984 -1.44085,0.659712 -0.371519,-0.554416 -1.613264,2.365447 -1.329387,3.125957 0.125411,0.335984 1.071439,1.262681 2.102289,2.05932 1.607591,1.242355 1.803707,1.672984 1.37836,3.026608 -0.8103,2.578705 -2.608123,4.817271 -4.472653,5.569137 -1.61598,0.651632 -2.973783,0.629387 -2.677061,-0.04385 z"
         id="path722" /></g><g
       id="g801"
       transform="matrix(0.93833917,0.08846763,-0.09841854,0.8434655,-3.9817658,-12.26153)"
       style="display:inline"><path
         style="display:inline;fill:#000000;fill-opacity:0.29819;stroke-width:1.35834"
         d="m 249.716,435.17778 c -4.76078,-8.20182 -12.09785,-29.16525 -11.33029,-32.37285 0.85271,-3.56334 7.22288,-5.93436 8.79154,-3.27226 0.66,1.12006 1.65791,0.31283 3.01435,-2.43836 3.84398,-7.79648 10.16777,-12.98586 15.82464,-12.98586 h 5.14388 l -2.74945,4.04983 c -1.51219,2.2274 -4.19049,7.31211 -5.95177,11.29935 l -3.20235,7.24954 6.19305,5.61085 c 8.41239,7.62154 14.25848,16.05449 12.44692,17.95454 -0.97985,1.0277 -3.62225,0.1316 -8.83346,-2.99554 l -7.43539,-4.46189 0.36531,6.56582 c 0.35946,6.4606 0.2848,6.59543 -4.65944,8.41474 -4.96942,1.82857 -5.05329,1.79975 -7.61754,-2.61791 z"
         transform="matrix(0.38004411,0.16749939,-0.16391513,0.37191172,34.739808,-175.65772)"
         id="path760" /><path
         style="display:inline;fill:#000000;fill-opacity:0.29819;stroke-width:1.35834"
         d="m 216.71832,448.22441 c -7.03854,-7.38232 -6.52023,-34.39473 0.80742,-42.08031 5.32045,-5.58031 17.64264,-6.00949 17.64264,-0.6145 0,2.80945 -6.53826,5.43212 -8.74766,3.50892 -1.44213,-1.25532 -2.12967,-0.75935 -3.31791,2.39334 -2.65316,7.03947 -3.05484,21.51411 -0.75708,27.28199 1.82685,4.58582 2.6235,5.21274 6.62405,5.21274 2.50922,0 5.32006,-0.9764 6.27118,-2.17841 2.28014,-2.88159 8.65595,-6.28758 9.70679,-5.18541 1.81471,1.90335 0.50547,3.47204 -7.33233,8.78528 -9.37718,6.35679 -16.62729,7.35472 -20.8971,2.87636 z"
         id="path758"
         transform="matrix(0.38004411,0.16749939,-0.16391513,0.37191172,34.739808,-175.65772)" /><path
         style="display:inline;fill:#000000;fill-opacity:0.29819;stroke-width:1.35834"
         d="m 203.14444,456.09888 c -2.76533,-5.37109 -17.05054,-35.94601 -17.05054,-36.49362 0,-1.52972 4.49409,-4.89218 6.53864,-4.89218 4.8988,0 18.66177,26.95142 18.66177,36.54453 0,7.68322 -5.12059,10.72501 -8.14987,4.84127 z"
         id="path756"
         transform="matrix(0.38004411,0.16749939,-0.16391513,0.37191172,34.739808,-175.65772)" /><path
         style="display:inline;fill:#000000;fill-opacity:0.29819;stroke-width:1.35834"
         d="m 175.44674,467.98724 c -1.80366,-1.30384 -4.03983,-3.33835 -4.96926,-4.52114 -2.49834,-3.17936 -8.27191,-15.05872 -10.41472,-21.42872 -2.19669,-6.53019 -1.18567,-7.81406 6.13608,-7.79209 4.60643,0.0139 4.67658,0.10739 9.11045,12.15098 4.47534,12.15628 6.27315,15.61487 8.11677,15.61487 1.23409,0 -1.90361,-14.51139 -4.60267,-21.28666 -2.44158,-6.12895 -2.61769,-12.96614 -0.35593,-13.81834 0.91186,-0.34356 3.51921,-0.10099 5.7941,0.5391 4.44708,1.25125 5.64871,4.15282 8.48843,20.4968 1.95332,11.24235 1.65235,13.38142 -2.54605,18.09534 -4.4195,4.96217 -9.63657,5.6515 -14.7572,1.94986 z"
         id="path754"
         transform="matrix(0.38004411,0.16749939,-0.16391513,0.37191172,34.739808,-175.65772)" /><path
         style="display:inline;fill:#000000;fill-opacity:0.29819;stroke-width:1.35834"
         d="m 136.29597,482.2456 c -3.92792,-4.11976 -4.07743,-8.11356 -0.68291,-18.24331 3.19085,-9.52195 8.9516,-17.0579 13.14294,-17.19302 9.66837,-0.3117 18.42543,10.54938 16.77365,20.80377 -0.75494,4.6867 -0.44825,5.60648 2.55838,7.67272 6.31332,4.33869 3.48501,8.07582 -3.56287,4.70774 -2.55738,-1.22212 -4.29056,-0.8432 -9.54431,2.08668 -8.25618,4.60427 -14.40089,4.65867 -18.68488,0.16542 z m 15.71582,-4.63023 c 1.9953,-2.31247 1.82971,-2.7401 -2.4471,-6.31934 -6.63255,-5.55072 -6.13725,-8.30322 1.38127,-7.67604 3.28268,0.27384 5.96852,-10e-4 5.96852,-0.6109 0,-2.22313 -5.39414,-12.1269 -6.60496,-12.1269 -1.917,0 -7.98055,7.29561 -8.78167,10.56599 -0.3927,1.60317 -0.52327,5.35399 -0.29014,8.33516 0.32517,4.15788 1.04171,5.52297 3.07656,5.86109 5.59505,0.92974 6.81898,1.88689 3.97901,3.11169 -1.95673,0.84389 -2.09765,1.16968 -0.53715,1.24179 1.16354,0.0538 3.07859,-1.01837 4.25566,-2.38254 z"
         id="path345"
         transform="matrix(0.38004411,0.16749939,-0.16391513,0.37191172,34.739808,-175.65772)" /><path
         style="display:inline;fill:#000000;fill-opacity:0.600917;stroke-width:1.35834"
         d="m 250.02487,436.06 c -0.70837,-1.41175 -3.79483,-8.92493 -6.85878,-16.69598 -4.43746,-11.25464 -5.28657,-14.68627 -4.1736,-16.86745 1.79236,-3.51261 6.69518,-4.95434 7.68137,-2.2588 0.49973,1.36584 1.89919,0.0728 4.40335,-4.06883 4.37232,-7.23118 10.40963,-12.06049 15.07729,-12.06049 h 3.3867 l -5.37783,10.85031 -5.37783,10.85032 9.41281,9.87257 c 5.69961,5.97798 9.41282,11.02689 9.41282,12.79871 0,1.60939 -0.24109,2.92615 -0.53575,2.92615 -0.29467,0 -4.1742,-2.15703 -8.62119,-4.79338 -4.447,-2.63636 -8.05945,-4.35787 -8.02768,-3.82558 0.0317,0.53229 0.55083,3.6418 1.15346,6.91003 1.23266,6.6849 1.2471,6.66363 -5.41773,7.97502 -3.9421,0.77568 -5.09044,0.47394 -6.13741,-1.6126 z"
         id="path740"
         transform="matrix(0.38004411,0.16749939,-0.16391513,0.37191172,34.739808,-175.65772)" /><path
         style="display:inline;fill:#000000;fill-opacity:0.600917;stroke-width:1.35834"
         d="m 217.54453,448.90742 c -3.38886,-2.69606 -4.92389,-9.60149 -4.92389,-22.1504 0,-11.81628 2.25319,-18.96504 7.09972,-22.52548 3.08569,-2.26687 11.0945,-2.68461 14.0364,-0.73214 3.16091,2.09784 -0.90056,6.0174 -5.50138,5.30916 -2.06142,-0.31733 -4.36399,0.20144 -5.1168,1.15283 -1.81117,2.28892 -3.1563,19.76134 -2.0133,26.15161 1.23435,6.90106 5.95009,10.17711 11.30237,7.85184 2.13141,-0.92598 4.90623,-2.8784 6.16625,-4.33873 2.46907,-2.86155 7.73111,-3.67736 6.90251,-1.07013 -0.27705,0.87173 -4.31451,4.00175 -8.97214,6.95559 -8.89875,5.64351 -14.82234,6.70336 -18.97974,3.39585 z"
         id="path738"
         transform="matrix(0.38004411,0.16749939,-0.16391513,0.37191172,34.739808,-175.65772)" /><path
         style="display:inline;fill:#000000;fill-opacity:0.600917;stroke-width:1.35834"
         d="m 204.39201,456.79444 c -2.67137,-3.23855 -16.97177,-34.54386 -16.97177,-37.15321 0,-1.91873 3.79975,-4.93121 6.2129,-4.92566 2.72937,0.007 16.01782,25.9462 17.17292,33.52265 0.74301,4.8735 -1.11144,10.99068 -3.33187,10.99068 -0.59075,0 -1.97774,-1.0955 -3.08218,-2.43446 z"
         id="path736"
         transform="matrix(0.38004411,0.16749939,-0.16391513,0.37191172,34.739808,-175.65772)" /><path
         style="display:inline;fill:#000000;fill-opacity:0.600917;stroke-width:1.35834"
         d="m 173.7915,466.27213 c -5.11322,-4.70875 -13.16483,-21.05474 -13.40076,-27.2056 -0.15096,-3.93556 0.16146,-4.20691 5.29722,-4.60079 5.06665,-0.3886 5.51189,-0.13411 6.21482,3.55222 1.37404,7.20581 10.06555,25.64351 11.61487,24.6392 1.71138,-1.10936 1.14969,-4.13375 -3.63663,-19.5812 -1.92297,-6.2062 -3.12104,-12.30974 -2.66235,-13.56341 0.98698,-2.69765 6.14576,-3.00065 9.20238,-0.5405 2.20296,1.77307 5.40087,13.16475 7.02479,25.02377 0.85306,6.22968 0.64696,6.85955 -3.75521,11.47673 -5.7657,6.04732 -9.97096,6.25882 -15.89913,0.79958 z"
         id="path734"
         transform="matrix(0.38004411,0.16749939,-0.16391513,0.37191172,34.739808,-175.65772)" /><path
         style="display:inline;fill:#000000;fill-opacity:0.600917;stroke-width:1.35834"
         d="m 137.12119,482.05872 c -2.46996,-2.17984 -4.08078,-4.91968 -4.08078,-6.94096 0,-5.54548 6.50974,-20.81026 10.64796,-24.96858 3.66223,-3.68001 4.17624,-3.80705 9.11897,-2.25385 7.95631,2.5002 12.06516,8.49374 12.06516,17.59938 0,6.41006 0.49189,7.84927 3.54307,10.36656 4.98187,4.11014 2.37603,6.74925 -3.51126,3.55612 -3.82688,-2.07561 -4.4769,-2.09276 -6.50105,-0.17145 -2.88595,2.73931 -11.25523,6.41423 -14.6078,6.41423 -1.42642,0 -4.42986,-1.62065 -6.67427,-3.60145 z m 14.57513,-3.40308 c 3.61276,-2.02794 3.22817,-3.59916 -2.0767,-8.48439 -2.5532,-2.35124 -4.64218,-4.83613 -4.64218,-5.52198 0,-1.74393 7.57574,-1.5595 10.8234,0.26351 2.42521,1.36132 2.59935,1.18957 1.76317,-1.7389 -1.60337,-5.61529 -5.35014,-11.56983 -7.56108,-12.01642 -3.6298,-0.73318 -8.93611,8.16036 -9.19776,15.41571 -0.22793,6.32035 2.00184,11.45165 4.32256,9.94731 0.64683,-0.41929 1.8825,-0.30441 2.74593,0.25529 1.0792,0.69956 0.76829,1.34687 -0.99475,2.07101 -2.34964,0.96506 -2.36276,1.06156 -0.15635,1.15113 1.32456,0.0538 3.56275,-0.55024 4.97376,-1.34227 z"
         id="path343"
         transform="matrix(0.38004411,0.16749939,-0.16391513,0.37191172,34.739808,-175.65772)" /><path
         style="display:inline;fill:#000200;stroke-width:1.35834"
         d="m 247.14917,428.33989 c -7.06901,-16.51373 -9.12719,-24.04169 -7.29259,-26.67322 1.80679,-2.5916 4.75299,-2.92609 6.80609,-0.77271 1.00128,1.05019 2.41812,-0.31367 4.85309,-4.67157 3.90083,-6.98139 9.24089,-11.25325 14.26416,-11.41088 l 3.42165,-0.1074 -4.33691,7.7011 c -7.11491,12.63401 -7.0723,13.99542 0.65028,20.77693 6.4356,5.65135 12.09623,13.43052 12.09623,16.62332 0,0.85162 -3.90955,-0.70553 -8.68788,-3.46033 l -8.68789,-5.00871 0.87819,6.94347 c 0.94563,7.47668 0.70007,7.89025 -5.51397,9.28644 -4.03688,0.90703 -4.1791,0.75175 -8.45045,-9.22647 z"
         id="path720"
         transform="matrix(0.38004411,0.16749939,-0.16391513,0.37191172,34.739808,-175.65772)" /><path
         style="display:inline;fill:#000200;stroke-width:1.35834"
         d="m 217.84985,448.31501 c -2.25777,-1.91753 -3.18964,-4.46977 -3.68244,-10.08561 -1.37404,-15.65797 -0.86,-24.06498 1.75438,-28.69332 3.72962,-6.60264 14.36617,-9.74797 17.89281,-5.29108 2.32224,2.93482 -3.7332,5.86856 -7.61527,3.68947 -2.29231,-1.28673 -2.88386,-0.96045 -4.15432,2.29134 -0.81477,2.08545 -1.62721,8.90321 -1.80545,15.1506 -0.27642,9.6889 0.0855,11.93866 2.46169,15.30232 3.89212,5.5096 7.75207,5.66503 14.49802,0.58384 6.54308,-4.92841 10.27935,-5.78479 6.59161,-1.51087 -2.85045,3.30357 -17.35349,11.13049 -20.62445,11.13049 -1.26164,0 -3.6541,-1.15523 -5.31658,-2.56718 z"
         id="path718"
         transform="matrix(0.38004411,0.16749939,-0.16391513,0.37191172,34.739808,-175.65772)" /><path
         style="display:inline;fill:#000200;stroke-width:1.35834"
         d="m 196.0296,439.62326 c -4.73516,-10.018 -8.60936,-19.08313 -8.60936,-20.14473 0,-1.06161 1.57438,-2.34465 3.49865,-2.8512 4.33834,-1.14204 6.36419,1.34603 13.78197,16.92657 6.67502,14.02043 7.46163,24.28388 1.86115,24.28388 -1.14359,0 -5.41267,-7.38285 -10.53241,-18.21452 z"
         id="path716"
         transform="matrix(0.38004411,0.16749939,-0.16391513,0.37191172,34.739808,-175.65772)" /><path
         style="display:inline;fill:#000200;stroke-width:1.35834"
         d="m 172.14358,464.16692 c -3.7804,-4.20417 -12.57643,-23.11344 -12.57643,-27.03619 0,-1.84991 9.176,-3.66508 10.47915,-2.07295 0.54815,0.6697 1.75215,3.74896 2.67554,6.84278 2.60354,8.72307 8.52777,20.62975 10.59022,21.28451 2.46304,0.78192 1.41226,-6.07149 -3.32163,-21.66448 -2.03603,-6.70645 -3.04448,-12.17081 -2.36852,-12.83404 0.64742,-0.63524 3.09175,-0.84194 5.43185,-0.45934 4.80313,0.78531 5.56261,2.46143 8.92247,19.6914 1.49855,7.68485 1.63394,10.99417 0.54066,13.21564 -2.9777,6.05044 -5.43094,7.83249 -10.78254,7.83249 -4.29568,0 -6.07589,-0.89093 -9.59077,-4.79982 z"
         id="path714"
         transform="matrix(0.38004411,0.16749939,-0.16391513,0.37191172,34.739808,-175.65772)" /><path
         style="display:inline;fill:#000200;stroke-width:1.35834"
         d="m 140.02254,484.13278 c -1.56667,-0.60785 -3.83348,-2.68191 -5.03735,-4.609 -2.03882,-3.26361 -2.03181,-4.00787 0.10239,-10.85601 2.89719,-9.29654 4.85833,-13.33322 8.80589,-18.12528 2.74071,-3.32707 3.67018,-3.65945 7.23483,-2.58718 10.13231,3.04783 14.53958,9.17652 13.3407,18.55136 -0.60205,4.70785 -0.18342,5.91183 3.13326,9.01134 4.87395,4.55482 3.78501,6.53615 -2.16028,3.9307 -4.22498,-1.85152 -4.96696,-1.78244 -9.2372,0.86012 -5.9318,3.67079 -12.54761,5.23414 -16.18222,3.82395 z m 12.16576,-5.60745 3.58959,-2.96147 -4.73706,-4.0954 c -5.84694,-5.05495 -6.37533,-8.76074 -1.08962,-7.64195 2.00608,0.42461 4.69191,1.19585 5.96851,1.71385 4.62049,1.87482 1.55374,-8.39624 -4.11294,-13.77501 -2.68058,-2.54438 -2.79408,-2.51059 -6.72328,2.00146 -7.05349,8.09977 -6.92605,23.39681 0.19709,23.65648 1.65698,0.0604 2.26292,0.42686 1.34651,0.81437 -1.712,0.72393 -1.01064,3.24915 0.90243,3.24915 0.58805,0 2.6845,-1.33266 4.65877,-2.96148 z"
         id="path341"
         transform="matrix(0.38004411,0.16749939,-0.16391513,0.37191172,34.739808,-175.65772)" /></g></g></svg>